<?xml version="1.0" encoding="iso-8859-1"?>
<!-- Uploaded to: SVG Repo, www.svgrepo.com, Generator: SVG Repo Mixer Tools -->
<svg fill="#000000" height="800px" width="800px" version="1.1" id="Layer_1" xmlns="http://www.w3.org/2000/svg" xmlns:xlink="http://www.w3.org/1999/xlink" 
	 viewBox="0 0 512 512" xml:space="preserve">
<g>
	<g>
		<path d="M432.247,213.278c-11.413-47.077-40.474-86.892-81.832-112.111c-41.358-25.22-90.061-32.825-137.137-21.412
			c-47.078,11.412-86.892,40.473-112.111,81.831c-25.219,41.358-32.824,90.061-21.412,137.137
			c11.412,47.078,40.473,86.892,81.831,112.111c4.596,2.803,9.291,5.363,14.056,7.728c0.289,0.151,0.58,0.302,0.878,0.438
			c24.861,12.177,51.816,18.421,79.15,18.421c14.332,0,28.771-1.712,43.054-5.175c47.078-11.412,86.892-40.473,112.111-81.831
			C436.054,309.057,443.659,260.354,432.247,213.278z M206.374,119.156l-0.014,0.058l-33.372,29.078l-10.304-4.109
			C175.804,133.252,190.628,124.848,206.374,119.156z M167.188,298.687l-2.477,2.741c-8.696,9.623-12.428,22.474-10.24,35.258
			l4.829,28.224c-40.705-36.108-57.512-92.053-44.649-144.002l37.918,21.7c2.44,1.396,3.665,4.276,2.978,7.004
			c-3.523,14.006,0.298,28.633,10.22,39.124l1.324,1.401C169.335,292.509,169.378,296.265,167.188,298.687z M266.476,401.185
			l-1.376-8.399c5.424-1.781,11.428,0.229,14.671,5.058l1.054,1.57C276.078,400.239,271.29,400.832,266.476,401.185z
			 M380.336,331.818c-15.728,25.793-38.25,44.948-63.871,56.601l-7.036-10.482c-13.173-19.624-38.418-26.915-60.027-17.337
			l-11.41,5.059c-7.432,3.296-11.701,11.194-10.386,19.217l2.359,14.393c-10.179-1.838-20.257-4.787-30.064-8.886l-10.219-59.723
			c-0.327-1.916,0.231-3.841,1.535-5.284l2.475-2.74c14.605-16.161,14.319-41.218-0.647-57.042l-1.324-1.4
			c-1.487-1.573-2.06-3.766-1.532-5.864c4.579-18.193-3.595-37.406-19.876-46.724l-42.658-24.413
			c1.267-2.359,2.598-4.697,4.009-7.011c1.642-2.693,3.363-5.309,5.149-7.857l33.073,13.187c2.141,0.854,4.384,1.27,6.612,1.27
			c4.242,0,8.428-1.512,11.735-4.395l45.813-39.919c2.748-2.395,4.697-5.573,5.587-9.106l5.669-22.529
			c3.634-0.273,7.281-0.427,10.937-0.427c25.823,0,51.966,6.86,75.578,21.259c1.128,0.688,2.241,1.39,3.344,2.104l-16.241,17.749
			l-54.107,2.1c-5.932,0.23-11.362,3.393-14.488,8.438l-24.441,39.441c-3.879,6.259-3.52,14.257,0.906,20.143l15.471,20.573
			c2.578,3.427,3.984,7.676,3.961,11.965l-0.138,26.822c-0.062,12.03,5.166,23.388,14.346,31.163
			c7.395,6.264,16.663,9.617,26.186,9.617c2.297,0,4.61-0.195,6.914-0.592l29.795-5.127c12.013-2.067,23.172-8.148,31.423-17.121
			c3.62-3.936,8.556-6.199,13.9-6.369c5.37-0.166,10.416,1.772,14.279,5.469l8.38,8.021c0.355,0.339,0.727,0.648,1.101,0.953
			C389.231,315.497,385.223,323.803,380.336,331.818z M401.202,266.934c-9.782-6.918-21.48-10.447-33.696-10.067
			c-15.017,0.48-28.887,6.836-39.057,17.896c-2.935,3.193-6.907,5.358-11.183,6.094l-29.794,5.127
			c-1.843,0.318-3.167-0.412-3.954-1.079c-0.787-0.667-1.723-1.854-1.713-3.722l0.138-26.822
			c0.062-12.05-3.892-23.988-11.133-33.618l-8.13-10.813l13.007-20.988l52.069-2.021c4.768-0.185,9.264-2.271,12.484-5.79
			l22.327-24.4C390.421,186.654,404.151,226.889,401.202,266.934z"/>
	</g>
</g>
<g>
	<g>
		<path d="M440.425,68.991l-4.521,4.884C387.68,26.236,323.802,0,256,0C193.842,0,133.905,22.553,87.231,63.503
			C31.795,112.145,0,182.307,0,256c0,9.864,7.997,17.86,17.86,17.86c9.864,0,17.86-7.997,17.86-17.86
			c0-63.411,27.361-123.786,75.069-165.645C150.945,55.123,202.515,35.721,256,35.721c58.419,0,113.453,22.633,154.967,63.727
			c0.223,0.22,0.461,0.413,0.692,0.619l-5.301,5.727c-6.694,7.232-1.116,18.93,8.717,18.278l32.894-2.177
			c5.586-0.369,9.984-4.912,10.173-10.506l1.173-34.627C459.657,66.674,447.282,61.583,440.425,68.991z"/>
	</g>
</g>
<g>
	<g>
		<path d="M494.14,238.14c-9.864,0-17.86,7.997-17.86,17.86c0,54.043-19.761,106.017-55.641,146.35
			C378.841,449.334,318.833,476.279,256,476.279c-53.481,0-105.048-19.4-145.202-54.627c-0.652-0.572-1.343-1.068-2.049-1.529
			l4.52-4.883c6.694-7.232,1.116-18.93-8.718-18.278l-32.894,2.177c-5.586,0.369-9.984,4.912-10.173,10.506l-1.173,34.627
			c-0.342,10.09,12.033,15.181,18.89,7.773l5.646-6.1c0.701,0.912,1.497,1.773,2.394,2.56C133.913,489.451,193.847,512,256,512
			c73.022,0,142.758-31.312,191.326-85.906C489.031,379.212,512,318.807,512,256C512,246.136,504.003,238.14,494.14,238.14z"/>
	</g>
</g>
</svg>